<svg xmlns="http://www.w3.org/2000/svg" width="145" height="88.483" viewBox="0 0 145 88.483">
    <path d="M1316.046 271.508l-72.5 68.545h145zm0 2.685l67.6 63.91h-135.197z" transform="translate(-1243.546 -271.508)"/>
    <path d="M1311.117 470.869h3.589l6.572-6.574h19.353v6.574h2.452V440.44zm29.495-9.008h-16.2l16.2-15.268z" transform="translate(-1297.936 -407.486)"/>
    <path d="M1757.952 440.44v30.429h2.452V464.3h19.353l6.572 6.574h3.589zm2.471 6.153l16.2 15.268h-16.2z" transform="translate(-1657.606 -407.486)"/>
    <path d="M1506.741 455.654l15.908 15.1-3.882.111-14.014-13.323-14 13.323V440.44h2.417v24.167l26.143-24.167h3.406z" transform="translate(-1442.533 -407.486)"/>
    <path d="M1620.557 392.4a33.52 33.52 0 0 0 15.228-29.5 21.055 21.055 0 0 0-1.594-7.35c-3.107-7.537-9.738-30.549 17.948-43.778 0 0-23.891 15.525-11.369 43.17 11.83 26.126-20.213 37.458-20.213 37.458z" transform="translate(-1547.013 -303.916)"/>
</svg>
