<svg xmlns="http://www.w3.org/2000/svg" width="36" height="36" viewBox="0 0 36 36">
    <defs>
        <clipPath id="8ssbibx3xa">
            <path d="M10.625-7.125a2.549 2.549 0 0 1 2.45 1.75h1.05A.827.827 0 0 1 15-4.5a.827.827 0 0 1-.875.875h-1.05a2.667 2.667 0 0 1-2.45 1.75A2.578 2.578 0 0 1 8-4.5a2.578 2.578 0 0 1 2.625-2.625zm-5.25 1.75a.827.827 0 0 1 .875.875.827.827 0 0 1-.875.875h-3.5A.827.827 0 0 1 1-4.5a.827.827 0 0 1 .875-.875h3.5zm0-8.75A2.578 2.578 0 0 1 8-11.5a2.578 2.578 0 0 1-2.625 2.625 2.667 2.667 0 0 1-2.45-1.75h-1.05A.827.827 0 0 1 1-11.5a.827.827 0 0 1 .875-.875h1.05a2.667 2.667 0 0 1 2.45-1.75zm8.75 1.75A.827.827 0 0 1 15-11.5a.827.827 0 0 1-.875.875h-3.5a.827.827 0 0 1-.875-.875.827.827 0 0 1 .875-.875h3.5z"/>
        </clipPath>
        <clipPath id="8nde56ay5b">
            <path d="M-456 1329h1680V-676H-456z"/>
        </clipPath>
    </defs>
    <g>
        <g clip-path="url(#8ssbibx3xa)" transform="translate(10 26.125)">
            <g clip-path="url(#8nde56ay5b)">
                <path d="M-4-19.125h24v22.25H-4z"/>
            </g>
        </g>
    </g>
</svg>
