<svg xmlns="http://www.w3.org/2000/svg" width="36" height="36" viewBox="0 0 36 36">
    <g>
        <path d="M13.875 5.6H7.148v2.8h3.9a3.776 3.776 0 0 1-1.427 2.172 4.6 4.6 0 0 1-3.283.61A4.329 4.329 0 0 1 3.1 8.368s.005-.022.007-.023a4.183 4.183 0 0 1 0-2.742 4.3 4.3 0 0 1 3.172-2.78A4.082 4.082 0 0 1 9.92 3.8c.136-.133 1.88-1.836 2.011-1.974A7.206 7.206 0 0 0 .763 3.858v.008a6.837 6.837 0 0 0 .003 6.274l-.007.006a7.126 7.126 0 0 0 4.536 3.616 7.322 7.322 0 0 0 6.587-1.45A7.232 7.232 0 0 0 13.875 5.6" transform="translate(11 11)"/>
    </g>
</svg>
